<?xml version="1.0" standalone="no"?>
<!DOCTYPE svg PUBLIC "-//W3C//DTD SVG 20010904//EN"
 "http://www.w3.org/TR/2001/REC-SVG-20010904/DTD/svg10.dtd">
<svg version="1.0" xmlns="http://www.w3.org/2000/svg"
 width="1056.000000pt" height="1407.000000pt" viewBox="0 0 1056.000000 1407.000000"
 preserveAspectRatio="xMidYMid meet">

<g transform="translate(0.000000,1407.000000) scale(0.100000,-0.100000)"
fill="#000000" stroke="none">
<path d="M4455 13370 c-15 -6 -8 -9 27 -9 26 -1 50 4 53 9 8 12 -52 12 -80 0z"/>
<path d="M4345 13340 c-22 -10 -47 -19 -56 -19 -18 -1 -111 -36 -144 -54 -132
-72 -243 -143 -478 -305 -52 -36 -319 -313 -357 -371 -19 -29 -47 -67 -61 -85
-74 -91 -261 -425 -313 -561 -28 -75 -80 -205 -115 -290 -14 -33 -50 -158 -60
-205 -5 -25 -16 -74 -25 -110 -9 -36 -21 -90 -27 -120 -6 -30 -24 -109 -40
-175 -32 -139 -68 -324 -80 -410 -4 -33 -15 -112 -24 -175 -17 -124 -19 -140
-35 -305 -6 -60 -16 -153 -21 -205 -6 -52 -12 -120 -13 -150 -4 -81 -24 -281
-41 -390 -43 -290 -62 -560 -39 -560 7 0 16 -9 19 -21 7 -21 -8 -126 -26 -185
-5 -17 -9 -46 -9 -66 0 -25 -5 -38 -18 -43 -16 -6 -16 -7 2 -21 18 -12 18 -19
9 -71 -6 -32 -7 -65 -3 -73 4 -8 3 -69 -2 -135 -5 -66 -11 -151 -13 -190 -2
-38 -10 -128 -19 -200 -9 -71 -23 -196 -31 -277 -18 -180 -43 -318 -62 -338
-9 -10 -37 -16 -86 -17 -40 -1 -110 -9 -157 -16 -47 -8 -132 -20 -190 -26
-141 -16 -204 -34 -309 -85 -103 -51 -170 -94 -226 -146 -22 -21 -62 -54 -90
-75 -78 -57 -352 -322 -387 -373 -42 -61 -62 -116 -116 -322 -42 -159 -46
-186 -46 -290 0 -89 5 -133 22 -195 55 -196 125 -328 246 -465 69 -79 102
-132 111 -184 5 -29 20 -51 62 -92 l56 -53 -8 -53 c-21 -129 -3 -316 35 -382
l23 -38 -12 -252 c-7 -138 -14 -267 -16 -286 -2 -19 -4 -85 -5 -147 0 -110 -1
-113 -30 -146 -34 -40 -38 -72 -11 -87 37 -20 44 -71 39 -292 -4 -152 -2 -228
8 -285 7 -43 14 -96 14 -119 0 -52 28 -146 41 -139 5 4 9 30 8 58 -6 182 115
344 343 460 136 69 269 103 473 120 153 12 165 18 165 87 0 29 5 50 13 52 6 3
52 1 100 -3 87 -7 120 -16 223 -65 28 -13 64 -24 79 -24 15 0 80 -18 144 -39
64 -21 148 -49 186 -61 39 -12 93 -32 120 -45 98 -46 143 -64 171 -70 61 -12
-106 63 -261 118 -101 36 -160 63 -202 92 -21 14 -47 25 -59 25 -11 0 -29 9
-39 20 -10 11 -26 20 -35 20 -16 0 -66 18 -115 40 -11 5 -60 26 -110 45 -78
31 -98 44 -152 101 -34 35 -66 79 -71 97 -12 42 -14 169 -4 184 15 23 174 -4
286 -49 85 -34 106 -39 147 -34 27 4 50 2 53 -3 20 -31 216 -114 216 -91 0 4
-17 15 -37 26 -21 10 -48 30 -60 42 -12 13 -28 22 -35 19 -23 -8 -67 22 -94
64 -34 54 -42 132 -20 179 45 93 45 93 104 57 20 -12 49 -29 65 -36 26 -14
139 -125 148 -146 2 -5 19 -23 38 -38 36 -30 121 -129 121 -142 0 -4 21 -35
48 -69 26 -33 58 -83 72 -109 28 -55 53 -78 137 -125 32 -18 64 -43 70 -55 7
-12 21 -42 33 -66 11 -25 41 -66 65 -92 24 -25 53 -66 65 -90 13 -24 26 -46
30 -49 3 -3 17 -27 30 -55 72 -156 137 -248 235 -336 110 -98 245 -257 245
-288 0 -26 165 -54 555 -95 483 -51 750 -54 1095 -10 69 8 143 17 165 20 89
10 193 26 255 39 256 54 510 87 1010 131 180 16 272 33 350 67 25 10 77 30
115 44 39 14 134 56 211 94 147 72 177 95 342 261 148 148 391 440 372 446 -6
2 -10 12 -10 23 0 35 -31 59 -75 58 -32 0 -36 -2 -20 -10 19 -8 19 -9 1 -6
-11 1 -19 5 -18 10 0 4 4 27 7 52 6 36 15 51 52 82 25 21 52 45 61 54 17 17
228 120 273 134 13 4 38 13 54 21 33 14 186 61 250 75 149 34 358 46 488 30
83 -11 130 -31 158 -65 10 -11 20 -18 24 -14 7 7 -15 57 -67 154 -18 33 -41
82 -52 108 -10 26 -39 75 -64 109 -25 34 -99 167 -164 295 -116 229 -118 234
-118 300 0 76 -37 223 -68 274 -12 18 -48 60 -81 92 -59 59 -60 59 -54 107 8
65 -1 93 -46 142 -61 67 -99 125 -117 179 -16 49 -16 51 5 88 24 44 27 106 7
154 -21 51 -112 198 -161 262 -34 44 -52 81 -79 168 -51 166 -108 424 -107
485 1 36 -67 212 -106 274 -13 20 -38 49 -55 65 -155 134 -243 217 -287 269
-50 59 -79 79 -161 108 -33 12 -64 13 -166 5 -181 -14 -308 -46 -544 -140 -52
-20 -160 -59 -240 -84 -314 -103 -301 -101 -324 -46 -7 17 -15 28 -18 24 -4
-3 -18 11 -31 33 -18 26 -27 59 -32 108 -4 39 -10 75 -15 80 -11 14 -20 70
-25 158 -2 43 -9 94 -14 115 -11 43 -22 165 -25 278 -2 44 -7 201 -12 349 -12
344 -11 1112 1 1455 17 457 10 1003 -15 1170 -6 36 -17 142 -26 235 -8 94 -17
181 -19 195 -2 14 -8 63 -14 110 -17 128 -126 514 -177 627 -103 229 -187 371
-320 543 -52 68 -184 190 -245 227 -58 36 -62 38 -150 98 -99 66 -102 68 -189
113 -41 21 -94 50 -117 65 -24 15 -50 27 -58 27 -9 0 -25 5 -35 10 -36 19
-122 31 -136 19 -11 -9 -15 -7 -20 5 -8 20 -44 21 -44 1 0 -19 -56 -21 -63 -1
-3 7 -25 18 -49 24 -24 6 -65 23 -91 37 -44 23 -55 25 -133 19 -47 -4 -87 -11
-90 -15 -2 -4 -20 -5 -38 -2 -23 3 -42 0 -57 -11 -15 -10 -44 -16 -80 -16 -32
0 -59 -4 -61 -9 -1 -5 -48 -14 -103 -20 -55 -6 -113 -14 -130 -18 -26 -5 -28
-4 -17 9 16 19 72 32 131 29 29 -2 41 1 37 8 -4 6 -14 11 -21 11 -28 0 -3 27
36 40 21 7 39 17 39 22 0 12 -21 9 -65 -12z m743 -498 c-10 -41 -28 -58 -28
-27 0 8 5 15 10 15 6 0 10 11 10 23 0 22 9 41 16 34 2 -1 -2 -22 -8 -45z m3
-68 c-5 -16 -10 -21 -10 -12 -1 18 10 51 15 45 2 -1 -1 -16 -5 -33z m-21 -28
c0 -2 -7 -19 -15 -37 -11 -27 -14 -29 -15 -12 0 28 10 53 21 53 5 0 9 -2 9 -4z
m41 -69 c-1 -4 -1 -14 -1 -22 0 -8 -6 -15 -14 -15 -19 0 -30 32 -14 42 15 9
30 6 29 -5z m-12 -181 c15 -18 63 -27 77 -15 8 6 14 4 18 -6 9 -24 26 -18 26
10 0 24 14 34 24 16 3 -4 23 -11 44 -13 21 -3 58 -15 82 -25 25 -11 62 -26 83
-33 20 -6 42 -20 47 -31 6 -10 19 -19 30 -19 18 0 36 -14 105 -79 17 -16 39
-30 50 -32 12 -3 23 -17 29 -38 5 -18 19 -37 30 -43 19 -8 33 -29 106 -154 14
-24 36 -55 49 -70 13 -14 26 -48 31 -77 11 -70 17 -83 43 -94 17 -8 23 -20 24
-49 6 -108 16 -190 26 -196 6 -3 11 -21 13 -40 1 -18 5 -42 9 -54 6 -19 2 -22
-32 -27 -34 -6 -102 -24 -213 -58 -46 -14 -139 -59 -146 -70 -3 -5 -18 -9 -34
-9 -19 0 -31 -6 -35 -19 -3 -10 -15 -29 -26 -42 -23 -26 -24 -96 -1 -91 7 1
29 5 50 8 20 3 42 9 47 12 6 4 46 15 90 25 44 10 109 25 145 33 117 28 122 28
132 10 5 -9 20 -16 33 -16 14 0 25 -4 25 -10 0 -5 -4 -10 -10 -10 -5 0 -10
-13 -10 -29 0 -18 -6 -31 -17 -35 -12 -5 -14 -9 -5 -18 24 -24 18 -27 -106
-43 -24 -3 -54 -12 -67 -21 -13 -9 -29 -13 -35 -9 -14 9 -60 -21 -60 -40 0 -7
10 -21 22 -29 l22 -16 -21 0 c-12 0 -24 -4 -27 -9 -7 -11 49 -25 64 -16 19 12
22 -23 5 -59 -19 -40 -45 -48 -45 -13 0 22 -1 22 -13 -3 -9 -16 -21 -24 -34
-23 -11 1 -29 -7 -38 -17 -19 -21 -55 -27 -55 -10 0 6 -4 10 -10 10 -5 0 -10
-11 -10 -25 0 -14 -6 -25 -12 -25 -23 -1 -173 -125 -176 -146 -3 -18 6 -21 88
-33 50 -8 93 -17 95 -22 3 -4 38 -13 78 -20 93 -16 110 -24 68 -34 -32 -7 -38
-30 -8 -30 9 0 22 -6 29 -13 6 -6 16 -12 21 -12 6 0 15 -7 22 -17 14 -19 35
-9 35 18 0 26 10 24 36 -8 18 -23 24 -25 37 -15 12 10 16 10 19 1 3 -8 30 -14
71 -17 49 -3 67 -8 67 -18 0 -8 11 -19 24 -26 14 -6 28 -18 31 -27 32 -79 56
-477 36 -594 -14 -81 -31 -157 -39 -172 -3 -5 -7 -30 -8 -54 -1 -25 -7 -47
-13 -49 -6 -2 -11 -19 -11 -38 0 -19 -7 -45 -16 -59 -11 -18 -14 -36 -8 -70 4
-33 3 -49 -6 -55 -6 -4 -13 -19 -13 -34 -1 -14 -5 -26 -9 -26 -5 0 -8 -9 -8
-19 0 -11 -7 -26 -15 -35 -8 -8 -15 -20 -15 -26 0 -13 -29 -72 -39 -80 -4 -3
-15 -21 -24 -40 -41 -81 -66 -119 -100 -153 -21 -19 -37 -42 -37 -49 0 -8 -11
-24 -25 -36 -14 -12 -25 -28 -25 -35 0 -7 -13 -23 -30 -35 -16 -12 -39 -39
-49 -60 -11 -20 -20 -34 -21 -30 0 13 -80 -66 -80 -80 0 -9 -2 -13 -5 -11 -2
3 -39 -29 -82 -71 -43 -41 -101 -86 -128 -99 -28 -14 -57 -30 -65 -37 -34 -28
-248 -87 -283 -79 -25 6 -60 -13 -39 -22 6 -2 12 -13 12 -22 0 -15 12 -19 73
-25 39 -4 74 -11 75 -16 2 -6 12 -10 23 -10 13 0 19 -7 19 -24 0 -35 25 -50
78 -47 54 2 86 -16 80 -45 -4 -17 -6 -16 -16 6 -10 23 -11 23 -11 4 -1 -25 40
-66 46 -47 3 9 10 9 28 1 16 -7 25 -22 29 -47 3 -20 7 -47 10 -61 2 -14 -1
-29 -8 -33 -8 -6 -8 -10 0 -13 8 -3 9 -16 3 -42 -7 -31 -5 -40 10 -52 15 -12
20 -35 26 -105 4 -49 7 -99 6 -110 -6 -140 -4 -439 4 -442 36 -13 38 -20 25
-82 -10 -49 -10 -66 0 -91 8 -20 12 -82 12 -183 -1 -255 -2 -293 -17 -378 -8
-45 -12 -85 -9 -90 3 -5 0 -18 -6 -29 -7 -13 -7 -20 0 -20 5 0 10 -18 10 -40
0 -22 4 -40 9 -40 17 0 30 63 36 164 4 55 8 103 10 106 2 4 11 42 20 86 9 43
21 87 27 97 5 10 12 46 14 80 3 34 11 72 20 84 15 23 34 31 34 13 0 -18 40
-32 56 -20 11 10 15 9 20 -4 8 -20 -11 -243 -31 -361 -8 -49 -20 -126 -26
-170 -6 -44 -17 -118 -26 -165 -8 -47 -16 -97 -17 -111 -2 -15 -9 -41 -16 -58
-9 -22 -10 -35 -3 -42 7 -7 14 0 22 21 6 18 19 40 29 49 12 10 21 35 25 66 16
141 20 164 27 160 7 -4 12 17 26 100 3 17 9 41 14 55 5 14 8 41 7 60 -1 44 8
60 32 53 10 -3 22 0 25 6 4 6 14 11 22 11 13 0 14 -8 9 -42 -4 -24 -9 -54 -11
-68 -6 -50 -16 -70 -38 -71 -12 0 -15 -3 -8 -6 16 -6 63 17 57 27 -2 4 11 56
31 115 19 60 33 114 30 120 -2 7 4 29 13 51 10 21 16 44 14 50 -2 5 8 21 22
34 17 16 25 34 25 58 0 20 3 32 7 29 3 -4 12 -2 19 4 15 12 29 -5 20 -26 -3
-8 -1 -17 5 -20 5 -4 12 1 15 9 3 9 14 16 24 16 11 0 20 10 24 26 6 22 11 25
36 22 17 -3 30 -1 30 4 0 4 5 8 10 8 6 0 20 9 32 20 12 10 25 17 29 14 5 -3
20 3 34 12 24 15 25 15 25 -3 0 -10 6 -27 14 -38 13 -19 46 -111 50 -141 1 -8
8 -20 14 -26 7 -7 12 -20 12 -30 0 -10 11 -41 25 -70 14 -28 25 -57 25 -62 0
-6 21 -54 47 -106 26 -52 48 -105 49 -117 6 -47 20 -53 19 -8 -1 24 -4 48 -8
51 -4 4 -7 25 -7 46 0 27 4 38 15 38 11 0 13 4 6 17 -6 10 -12 30 -16 46 -3
15 -14 36 -25 47 -22 22 -70 210 -70 276 0 32 4 44 15 44 8 0 15 9 15 20 0 13
-5 18 -15 14 -11 -5 -15 1 -15 17 0 20 2 21 10 9 9 -13 13 -12 28 6 14 16 23
19 35 12 10 -5 22 -6 27 -3 6 4 10 -8 10 -29 0 -52 22 -139 32 -124 4 7 8 29
9 48 0 19 4 46 9 60 6 21 8 17 15 -27 4 -29 13 -61 21 -70 11 -15 12 -3 11 81
-2 114 13 140 33 54 20 -88 32 -121 40 -109 3 7 3 33 0 59 -4 26 -5 52 -3 59
5 14 103 -73 103 -91 0 -5 19 -28 43 -50 50 -47 117 -130 117 -144 0 -5 7 -12
14 -15 8 -3 18 -21 21 -39 4 -18 15 -44 25 -58 l20 -25 -12 32 c-15 41 -1 56
21 23 31 -47 153 -180 165 -180 7 0 23 -18 36 -40 14 -22 28 -40 32 -40 16 0
19 23 4 39 -17 19 -21 41 -8 41 7 0 68 -65 135 -145 26 -32 72 -103 108 -170
26 -47 88 -225 96 -274 6 -34 -24 -141 -39 -141 -4 0 -8 -7 -8 -15 0 -8 -16
-32 -35 -52 -19 -20 -35 -41 -35 -45 0 -23 -210 -208 -237 -208 -6 0 -93 -66
-147 -112 -106 -91 -165 -165 -227 -283 -52 -100 -68 -139 -143 -350 -24 -66
-49 -133 -56 -150 -7 -16 -16 -39 -20 -50 -4 -11 -29 -67 -56 -124 -56 -119
-124 -198 -214 -249 -61 -35 -130 -50 -163 -35 -12 6 -44 16 -71 22 -27 6 -62
23 -78 36 -16 14 -39 25 -51 25 -26 0 -78 27 -167 86 -91 61 -201 141 -225
162 -19 18 -86 64 -127 88 -11 7 -47 34 -80 60 -61 50 -128 102 -163 128 -11
9 -43 33 -72 56 -29 22 -55 40 -59 40 -3 0 -18 9 -32 21 -42 32 -93 63 -178
109 -44 24 -83 46 -89 50 -13 10 -115 53 -190 80 -33 12 -69 26 -80 30 -29 12
-81 26 -150 40 -33 6 -87 18 -120 27 -108 26 -227 42 -405 52 -98 5 -196 16
-220 24 -25 8 -57 18 -71 21 -27 6 -126 110 -164 171 -11 18 -28 43 -37 56
-18 25 -56 225 -45 236 7 6 9 5 118 -78 159 -120 321 -214 357 -207 9 2 -9 15
-40 30 -30 15 -61 35 -69 44 -10 12 -1 10 36 -8 28 -14 77 -35 110 -46 33 -11
81 -30 106 -41 63 -28 155 -40 358 -45 95 -3 199 -10 232 -16 77 -14 88 -6 18
14 -34 9 -122 17 -233 21 -151 5 -196 10 -290 34 -110 28 -235 82 -311 134
-22 15 -45 27 -51 27 -11 0 -134 116 -134 126 0 2 -9 13 -20 24 -11 11 -20 25
-20 30 0 19 23 10 71 -31 32 -26 55 -39 65 -35 9 4 23 1 30 -5 8 -6 14 -8 14
-3 0 9 -57 62 -115 109 -23 19 -26 24 -12 25 9 0 17 -5 17 -12 0 -6 2 -9 5 -6
8 7 -18 101 -29 110 -5 3 -11 12 -13 20 -12 52 -22 96 -28 116 -6 18 -4 21 9
16 9 -3 16 -12 16 -20 0 -8 9 -14 20 -14 11 0 26 -12 35 -29 23 -46 39 -51 32
-10 l-7 34 39 -45 c22 -25 35 -47 30 -48 -5 -2 -6 -8 -3 -14 4 -6 9 -5 15 3 6
11 11 10 26 -2 10 -9 28 -16 40 -17 22 -1 22 0 6 25 -10 14 -19 35 -20 45 -2
11 -14 39 -27 63 -14 24 -22 46 -19 49 12 11 33 6 33 -8 0 -8 4 -16 9 -18 5
-1 20 -25 35 -53 74 -139 107 -182 128 -169 5 3 -6 23 -24 43 -18 21 -40 48
-48 60 -8 13 -22 33 -31 45 -8 11 -23 43 -33 69 -13 34 -26 52 -45 59 -21 9
-23 12 -8 15 23 6 22 10 -11 52 -15 20 -34 55 -44 78 l-16 43 33 0 c24 0 39
-7 50 -22 12 -16 19 -19 22 -10 8 20 22 14 59 -25 19 -20 36 -34 39 -31 6 5
-11 57 -38 117 -20 43 -26 88 -30 201 -1 30 -5 60 -9 66 -4 6 -1 19 6 29 13
18 14 17 29 -11 22 -41 30 -13 18 62 -11 69 -7 78 22 62 12 -7 31 -13 42 -14
11 -1 28 -5 38 -9 22 -9 23 13 2 41 -8 11 -14 39 -14 64 l1 45 8 -38 c8 -43
20 -60 20 -30 0 12 8 23 20 26 11 3 26 22 36 46 18 46 70 95 91 87 17 -7 43
16 43 37 0 8 9 17 20 20 18 5 20 14 20 96 0 93 2 96 40 93 8 -1 -6 108 -19
148 -6 19 -11 57 -11 83 0 27 -4 56 -10 66 -13 25 -1 91 16 91 19 0 18 16 -1
24 -13 5 -15 35 -13 199 2 154 0 198 -11 211 -11 13 -12 27 -3 69 13 65 10
155 -6 185 -15 26 -1 62 23 62 8 0 15 6 15 14 0 7 13 16 29 19 18 4 32 14 36
27 4 14 14 21 28 19 31 -3 107 12 107 21 0 12 50 19 56 8 3 -5 30 -6 60 -2 38
4 59 2 69 -6 18 -15 175 -14 190 1 16 16 -13 27 -55 22 -22 -3 -47 0 -61 8
-13 8 -28 14 -34 14 -13 1 -91 51 -99 64 -4 5 -20 12 -36 16 -17 4 -44 18 -60
32 -16 13 -37 23 -46 21 -10 -2 -31 9 -47 25 -16 15 -37 27 -47 27 -10 0 -25
11 -34 24 -8 14 -24 27 -34 30 -10 4 -25 18 -32 31 -7 14 -22 25 -32 25 -10 0
-18 6 -18 14 0 17 -27 29 -43 19 -7 -3 -9 -3 -5 2 4 4 -12 22 -36 39 -52 37
-116 93 -116 101 0 17 -46 65 -63 65 -13 0 -18 6 -16 23 3 28 -9 67 -22 67 -5
0 -9 6 -9 14 0 8 -7 16 -15 20 -8 3 -15 15 -15 26 0 11 -3 20 -8 20 -8 0 -27
42 -36 81 -3 14 -19 43 -35 63 -19 24 -32 54 -36 84 -4 26 -13 71 -21 101 -9
30 -13 64 -10 76 3 12 1 37 -4 56 -9 31 -20 132 -24 217 0 17 -4 32 -7 32 -4
0 -9 42 -12 93 -4 50 -10 134 -13 185 -5 63 -2 117 6 164 11 58 11 71 0 78
-17 11 -16 130 2 141 6 4 15 29 18 56 25 168 43 269 51 285 13 25 29 23 30 -4
0 -13 3 -17 6 -10 6 14 33 16 33 2 0 -5 -4 -10 -9 -10 -5 0 -4 -11 2 -24 11
-22 14 -23 28 -10 23 21 53 17 80 -9 33 -33 169 -65 204 -49 21 10 25 9 25 -6
0 -9 5 -24 10 -32 8 -12 12 -11 30 8 27 28 46 28 54 0 6 -21 7 -21 17 -5 12
21 29 22 29 2 0 -21 9 -19 31 8 25 30 24 37 -5 37 -14 0 -27 4 -30 9 -9 14 23
22 60 15 35 -6 45 -27 20 -41 -12 -6 -10 -14 11 -38 l24 -30 -3 55 c-3 49 -1
55 17 55 14 0 21 -9 26 -33 11 -56 27 -60 21 -5 -2 26 -8 49 -13 51 -4 2 1 22
12 45 10 23 19 59 19 80 0 20 4 37 9 37 17 0 127 -63 151 -86 21 -21 23 -26
10 -34 -8 -5 -27 -10 -41 -10 -15 0 -42 -7 -60 -15 l-34 -16 35 7 c19 4 74 7
123 6 48 0 87 1 87 3 0 17 -27 56 -41 60 -31 10 -119 84 -119 100 0 8 -7 15
-16 15 -13 0 -15 7 -11 36 l6 35 -20 -25 c-12 -15 -31 -26 -45 -26 -22 0 -24
4 -24 43 0 49 7 63 35 69 32 6 -82 38 -150 41 -33 2 -66 6 -73 11 -6 4 -16 5
-21 2 -5 -4 -7 3 -4 14 5 18 0 20 -43 22 -55 1 -58 1 -98 -8 -15 -4 -31 -2
-35 3 -4 6 -19 6 -39 1 -27 -7 -31 -12 -23 -22 9 -10 8 -15 -5 -20 -28 -11
-72 -6 -77 8 -5 13 -11 13 -39 -1 -18 -9 -35 -20 -38 -24 -3 -4 -18 -5 -33 -2
-26 5 -27 8 -21 37 3 17 10 41 15 53 8 22 148 140 179 151 8 3 22 11 30 18 23
20 75 27 177 26 92 -2 227 -25 251 -45 7 -5 15 -7 18 -4 4 3 15 -2 26 -12 24
-23 89 -35 99 -19 5 8 11 9 21 1 9 -7 21 -8 38 -1 23 9 24 10 7 22 -14 11 -15
15 -3 25 7 6 21 9 30 5 18 -7 23 20 6 31 -5 3 -10 1 -10 -6 0 -7 -11 -2 -25
11 -13 12 -22 28 -18 34 3 6 3 8 -2 4 -4 -4 -15 -2 -23 4 -14 12 -64 28 -147
47 -22 5 -67 17 -100 26 -157 45 -260 47 -345 8 -30 -15 -66 -35 -79 -45 -39
-30 -56 -24 -59 23 -1 23 3 48 10 56 7 8 13 20 14 27 1 6 7 29 12 51 6 22 15
56 20 76 5 20 13 42 17 50 5 7 9 24 11 38 2 28 25 93 35 101 4 3 9 31 13 63 5
40 12 57 22 57 8 0 17 13 21 30 3 17 9 30 14 30 5 0 9 6 9 13 0 7 16 21 34 31
20 10 36 28 38 40 2 11 12 25 23 31 11 5 35 25 52 43 18 19 37 31 43 27 19
-12 60 23 60 51 0 19 4 25 15 20 9 -3 19 3 25 15 16 30 129 109 155 109 14 0
25 7 28 20 4 15 14 20 36 20 20 0 35 7 43 20 9 13 24 20 45 20 18 0 33 4 33 8
0 11 106 46 118 38 6 -3 14 3 17 15 6 18 13 20 43 16 21 -3 48 -8 62 -11 25
-6 25 -6 2 4 -41 17 -20 35 41 35 31 0 59 4 63 8 11 11 20 9 33 -7z m-748
-1568 l12 -22 9 24 c8 21 10 22 24 9 11 -12 13 -22 5 -42 -12 -30 -31 -36 -32
-9 0 13 -3 11 -10 -6 -13 -33 -60 -27 -73 9 -5 15 -6 34 -3 43 9 24 54 20 68
-6z m-93 -36 c3 -33 -7 -39 -42 -26 -32 12 -10 68 24 62 9 -2 16 -16 18 -36z
m198 16 c-3 -13 -6 -29 -6 -35 0 -7 -7 -13 -15 -13 -10 0 -15 11 -15 35 0 29
4 35 21 35 17 0 20 -4 15 -22z m1448 -36 c-8 -32 -4 -28 -31 -36 -29 -9 -30 6
-2 45 24 34 42 29 33 -9z m-1784 -12 c0 -5 -4 -10 -10 -10 -5 0 -10 5 -10 10
0 6 5 10 10 10 6 0 10 -4 10 -10z m1849 -169 c19 -26 19 -28 1 -68 -19 -44
-47 -67 -92 -78 -45 -11 -50 3 -18 47 33 46 37 72 16 123 -8 18 -12 35 -10 38
9 9 85 -36 103 -62z m-1629 29 c0 -19 -5 -30 -14 -30 -12 0 -15 27 -7 58 1 1
6 2 11 2 6 0 10 -13 10 -30z m-188 3 c-7 -12 -5 -24 5 -40 20 -30 14 -35 -17
-20 -29 14 -37 41 -20 62 18 22 44 20 32 -2z m1448 -67 c0 -24 3 -51 6 -60 4
-11 1 -16 -11 -16 -20 0 -115 30 -115 37 0 17 26 46 58 62 55 30 62 27 62 -23z
m135 7 c0 -14 -5 -28 -12 -30 -7 -3 -11 7 -11 26 1 17 6 31 12 31 7 0 12 -12
11 -27z m916 -2742 c23 -144 26 -166 21 -183 -6 -23 -19 -23 -27 1 -9 31 -25
182 -24 241 0 46 2 51 10 31 5 -13 14 -54 20 -90z m-10 -436 c4 -21 3 -50 -1
-64 -6 -24 -7 -23 -13 14 -4 22 -10 53 -13 69 -5 22 -4 28 7 24 8 -3 17 -22
20 -43z m199 -316 c0 -5 -4 -9 -10 -9 -5 0 -10 7 -10 16 0 8 5 12 10 9 6 -3
10 -10 10 -16z m-414 -512 c-3 -11 -1 -27 4 -36 5 -9 14 -45 20 -80 6 -35 15
-71 20 -80 30 -57 38 -81 26 -81 -7 0 -19 19 -26 43 -8 23 -20 52 -28 65 -8
12 -11 22 -8 22 4 0 0 12 -8 28 -17 29 -46 162 -39 175 9 15 44 -37 39 -56z
m-589 -149 c-3 -7 -5 -2 -5 12 0 14 2 19 5 13 2 -7 2 -19 0 -25z m49 -73 c-3
-8 -15 -15 -27 -15 l-22 0 24 26 c23 24 37 19 25 -11z m639 -110 l6 -30 -15
25 c-17 28 -22 60 -7 45 5 -6 12 -23 16 -40z m748 -5 c14 -22 22 -42 17 -45
-13 -8 -84 61 -76 74 13 21 32 11 59 -29z m-3543 -208 c0 -15 -2 -15 -10 -2
-13 20 -13 33 0 25 6 -3 10 -14 10 -23z"/>
<path d="M5073 12453 c9 -2 23 -2 30 0 6 3 -1 5 -18 5 -16 0 -22 -2 -12 -5z"/>
<path d="M4927 9843 c-16 -15 -5 -23 32 -23 44 0 71 8 71 21 0 10 -93 12 -103
2z"/>
<path d="M5332 9817 c-24 -26 -20 -37 13 -37 25 0 68 37 60 51 -11 17 -51 9
-73 -14z"/>
<path d="M4860 9426 c-19 -6 -44 -16 -55 -23 -11 -6 -38 -14 -60 -18 -22 -4
-51 -13 -65 -20 -25 -12 -152 -42 -200 -47 -47 -5 -33 -33 57 -110 48 -41 111
-91 140 -112 67 -48 226 -109 326 -126 108 -18 280 -8 343 19 65 29 164 107
205 161 19 24 45 55 59 67 23 22 24 24 8 37 -10 7 -18 18 -18 25 0 6 -9 11
-20 11 -11 0 -20 4 -20 8 0 12 -116 87 -175 113 -69 31 -153 32 -194 2 -39
-30 -71 -29 -129 2 -52 28 -138 33 -202 11z"/>
<path d="M4921 8164 c0 -11 3 -14 6 -6 3 7 2 16 -1 19 -3 4 -6 -2 -5 -13z"/>
<path d="M4270 6799 c0 -24 23 -21 28 4 2 10 -3 17 -12 17 -10 0 -16 -9 -16
-21z"/>
<path d="M4200 6730 c0 -6 -11 -15 -25 -20 -14 -5 -25 -16 -25 -25 0 -21 40
-19 56 3 16 20 18 52 4 52 -5 0 -10 -5 -10 -10z"/>
<path d="M6322 6695 c0 -16 2 -22 5 -12 2 9 2 23 0 30 -3 6 -5 -1 -5 -18z"/>
<path d="M6592 6610 c0 -14 2 -19 5 -12 2 6 2 18 0 25 -3 6 -5 1 -5 -13z"/>
<path d="M6740 6614 c0 -8 5 -12 10 -9 6 3 10 10 10 16 0 5 -4 9 -10 9 -5 0
-10 -7 -10 -16z"/>
<path d="M4030 6480 c0 -5 5 -10 10 -10 6 0 10 5 10 10 0 6 -4 10 -10 10 -5 0
-10 -4 -10 -10z"/>
<path d="M7070 6381 c0 -6 5 -13 10 -16 6 -3 10 1 10 9 0 9 -4 16 -10 16 -5 0
-10 -4 -10 -9z"/>
<path d="M7100 6301 c0 -5 5 -13 10 -16 6 -3 10 -2 10 4 0 5 -4 13 -10 16 -5
3 -10 2 -10 -4z"/>
<path d="M6580 6283 c0 -15 30 -72 42 -79 15 -10 -1 36 -23 65 -11 13 -19 19
-19 14z"/>
<path d="M6630 6181 c0 -6 4 -13 10 -16 6 -3 7 1 4 9 -7 18 -14 21 -14 7z"/>
<path d="M6680 6091 c26 -52 50 -84 50 -66 0 15 -62 125 -70 125 -6 0 3 -27
20 -59z"/>
<path d="M5478 6120 c-4 -14 -8 -36 -8 -50 1 -22 2 -23 11 -7 6 9 9 32 7 50
-3 31 -3 31 -10 7z"/>
<path d="M5520 6043 c0 -5 4 -13 8 -20 6 -9 11 -7 20 7 11 17 10 20 -8 20 -11
0 -20 -3 -20 -7z"/>
<path d="M5460 6008 c0 -19 2 -20 10 -8 13 19 13 30 0 30 -5 0 -10 -10 -10
-22z"/>
<path d="M3962 5978 c2 -6 10 -14 16 -16 7 -2 10 2 6 12 -7 18 -28 22 -22 4z"/>
<path d="M5541 5894 c0 -11 3 -14 6 -6 3 7 2 16 -1 19 -3 4 -6 -2 -5 -13z"/>
<path d="M5526 5845 c-3 -8 -1 -15 4 -15 6 0 10 7 10 15 0 8 -2 15 -4 15 -2 0
-6 -7 -10 -15z"/>
<path d="M5680 5790 c0 -22 -3 -40 -8 -40 -14 0 -29 -71 -22 -103 6 -30 7 -28
14 23 5 30 14 62 21 70 7 8 16 32 20 53 6 30 4 37 -9 37 -12 0 -16 -10 -16
-40z"/>
<path d="M5500 5790 c0 -11 5 -20 10 -20 6 0 10 9 10 20 0 11 -4 20 -10 20 -5
0 -10 -9 -10 -20z"/>
<path d="M3609 5752 c5 -10 18 -25 27 -33 16 -13 16 -12 0 19 -9 17 -21 32
-27 32 -6 0 -6 -6 0 -18z"/>
<path d="M5461 5694 c0 -11 3 -14 6 -6 3 7 2 16 -1 19 -3 4 -6 -2 -5 -13z"/>
<path d="M5628 5607 c-12 -29 -10 -63 3 -50 6 6 9 23 7 39 -2 24 -4 26 -10 11z"/>
<path d="M4000 5600 c0 -12 28 -25 36 -17 3 3 -4 10 -15 17 -15 7 -21 7 -21 0z"/>
<path d="M2342 8365 c0 -16 2 -22 5 -12 2 9 2 23 0 30 -3 6 -5 -1 -5 -18z"/>
<path d="M2320 8271 c0 -11 -3 -28 -6 -38 -5 -12 -4 -15 4 -8 16 15 26 65 13
65 -6 0 -11 -9 -11 -19z"/>
<path d="M2302 8170 c0 -14 2 -19 5 -12 2 6 2 18 0 25 -3 6 -5 1 -5 -13z"/>
<path d="M9145 3581 c-3 -5 8 -9 24 -9 17 1 28 5 25 10 -7 11 -41 10 -49 -1z"/>
<path d="M9115 3560 c3 -5 16 -10 28 -10 18 0 19 2 7 10 -20 13 -43 13 -35 0z"/>
<path d="M9000 3535 c0 -16 12 -18 48 -8 18 4 20 8 10 14 -22 14 -58 10 -58
-6z"/>
<path d="M9695 3393 c-11 -3 -23 -10 -27 -17 -6 -8 -11 -7 -17 3 -8 12 -12 12
-25 2 -8 -7 -20 -10 -26 -6 -5 3 -10 -1 -10 -9 0 -9 6 -16 13 -16 6 0 62 -21
122 -46 61 -25 136 -54 167 -64 32 -11 76 -28 100 -40 55 -26 58 -26 58 13 -1
32 -21 69 -36 66 -9 -2 -37 9 -143 57 -29 13 -64 24 -77 24 -13 0 -33 9 -44
20 -21 21 -22 21 -55 13z"/>
<path d="M2300 3124 c0 -11 53 -54 75 -60 11 -3 45 -16 75 -29 30 -13 82 -31
115 -40 33 -10 69 -23 80 -29 11 -5 43 -9 72 -7 28 1 60 -2 70 -7 12 -7 25 -7
34 -1 11 7 10 9 -7 9 -11 0 -35 7 -51 15 -17 9 -44 15 -60 14 -34 -2 -110 18
-118 31 -4 6 -10 8 -14 5 -5 -2 -26 4 -47 14 -22 10 -64 24 -94 31 -30 7 -62
18 -70 25 -22 18 -60 37 -60 29z"/>
<path d="M9982 3001 c-8 -5 -2 -14 18 -29 l30 -23 0 29 c0 28 -22 39 -48 23z"/>
<path d="M2845 2941 c7 -13 75 -35 82 -27 4 3 -1 6 -9 6 -9 0 -21 7 -28 15
-13 16 -55 21 -45 6z"/>
<path d="M9880 2904 c0 -32 4 -44 13 -41 6 2 12 9 11 15 -1 7 -2 26 -2 42 -3
48 -22 34 -22 -16z"/>
<path d="M2950 2890 c0 -10 61 -32 68 -25 8 8 -2 15 -37 25 -17 5 -31 5 -31 0z"/>
<path d="M3045 2860 c28 -12 37 -12 30 0 -3 6 -16 10 -28 9 -21 0 -21 -1 -2
-9z"/>
<path d="M2700 2708 c0 -29 164 -138 208 -138 6 0 12 -4 12 -8 0 -5 12 -14 28
-21 43 -20 161 -113 167 -132 8 -25 36 -32 103 -23 44 5 52 9 37 15 -89 38
-140 65 -283 149 -51 30 -110 64 -132 75 -22 11 -52 32 -67 46 -39 36 -73 54
-73 37z"/>
<path d="M9676 2551 c-20 -37 -55 -48 -88 -28 -21 14 -25 14 -45 -3 -13 -10
-23 -23 -23 -29 0 -12 -60 -46 -60 -34 0 5 -13 -6 -28 -24 -22 -26 -104 -97
-265 -229 -9 -7 -21 -14 -25 -14 -4 0 -23 -13 -42 -30 -19 -16 -40 -29 -47
-30 -6 0 -13 -3 -15 -7 -5 -11 -74 -63 -138 -103 -52 -33 -79 -54 -141 -110
-15 -14 -42 -37 -61 -52 -18 -15 -47 -38 -63 -51 -92 -75 -227 -124 -365 -132
-100 -6 -230 -27 -230 -37 0 -4 -6 -8 -13 -8 -31 0 -247 -105 -247 -120 0 -15
64 -12 86 5 10 8 31 15 46 15 15 0 30 5 33 10 3 6 20 10 37 10 17 0 46 9 65
21 19 12 58 23 93 26 41 4 60 10 60 19 0 8 10 14 24 14 13 0 32 3 42 7 12 4
15 3 10 -5 -4 -7 -4 -12 -1 -12 30 0 158 24 188 36 20 8 50 14 66 14 20 0 30
6 34 20 4 15 14 20 37 20 18 0 43 9 57 20 14 11 34 20 44 20 11 0 19 4 19 8 0
5 12 15 27 23 15 8 54 31 85 52 31 20 68 37 82 37 14 0 28 5 31 10 3 6 14 10
24 10 9 0 27 14 39 30 18 23 30 30 57 30 35 0 50 23 23 33 -7 2 6 7 30 11 23
4 42 12 42 17 0 5 9 9 20 9 11 0 20 7 20 15 0 9 9 15 23 15 12 0 32 6 42 14
29 20 101 25 97 7 -2 -10 6 -12 35 -6 21 4 62 7 91 6 47 0 54 3 64 25 10 21
16 24 42 18 17 -3 36 -10 42 -15 6 -5 33 -6 60 -3 38 5 58 2 84 -13 19 -10 62
-28 94 -38 34 -12 61 -27 63 -36 3 -11 20 -19 46 -22 23 -3 43 -5 44 -3 1 1 5
69 9 152 8 176 0 263 -24 270 -9 3 -25 10 -34 15 -10 5 -28 9 -42 9 -13 0 -30
7 -37 17 -8 9 -30 23 -49 31 -19 8 -46 19 -60 25 -14 6 -28 10 -32 9 -4 -1
-20 15 -37 34 l-29 36 -16 -31z"/>
<path d="M3722 2518 c-7 -7 -12 -17 -12 -23 0 -6 -9 -17 -20 -25 -21 -15 -26
-30 -10 -30 5 0 21 18 36 41 25 41 28 59 6 37z"/>
<path d="M7724 1486 c-18 -14 -18 -15 -1 -21 24 -10 48 1 41 20 -8 19 -15 19
-40 1z"/>
<path d="M5290 429 c-19 -5 -51 -16 -70 -23 -130 -52 -341 -102 -595 -141
-203 -31 -326 -36 -805 -34 -505 2 -642 -4 -661 -27 -7 -9 -32 -14 -68 -14
-83 0 -92 -10 -95 -108 l-3 -82 2688 0 c1896 0 2689 3 2689 11 0 18 -70 163
-89 184 -10 11 -30 43 -44 71 -14 27 -31 55 -39 61 -19 17 -107 16 -233 0
-245 -33 -331 -39 -590 -42 -148 -2 -353 0 -455 5 -102 6 -295 12 -430 15
-135 3 -290 10 -345 16 -213 22 -284 31 -385 49 -58 10 -130 21 -160 25 -30 3
-66 10 -80 16 -14 5 -47 11 -75 13 -27 2 -66 6 -85 9 -19 4 -51 2 -70 -4z"/>
</g>
</svg>
